<?xml version="1.0" standalone="no"?>
<!DOCTYPE svg PUBLIC "-//W3C//DTD SVG 20010904//EN"
 "http://www.w3.org/TR/2001/REC-SVG-20010904/DTD/svg10.dtd">
<svg version="1.0" xmlns="http://www.w3.org/2000/svg"
 width="512.000000pt" height="512.000000pt" viewBox="0 0 512.000000 512.000000"
 preserveAspectRatio="xMidYMid meet">
<metadata>
Created by potrace 1.14, written by Peter Selinger 2001-2017
</metadata>
<g transform="translate(0.000000,512.000000) scale(0.100000,-0.100000)"
fill="#000000" stroke="none">
<path d="M2422 5104 c-273 -48 -506 -206 -650 -437 l-36 -58 -70 7 c-78 8
-189 7 -250 -2 -131 -19 -321 -98 -426 -177 -198 -148 -341 -379 -376 -602 -3
-22 -8 -43 -10 -47 -7 -11 -6 -187 2 -248 8 -69 46 -201 78 -274 97 -219 303
-413 531 -499 76 -28 192 -57 231 -57 l24 0 0 -167 c1 -93 1 -282 1 -421 0
-226 2 -258 19 -304 22 -60 59 -101 115 -131 40 -22 44 -22 653 -22 l613 0 20
25 c24 31 18 77 -12 102 -20 17 -64 18 -601 18 -615 0 -624 1 -643 47 -4 10
-9 62 -10 116 l-3 97 954 0 954 0 0 -90 c0 -102 -15 -145 -56 -160 -14 -6
-108 -10 -209 -10 -101 0 -191 -3 -200 -6 -28 -11 -46 -59 -35 -90 20 -52 29
-54 250 -53 182 0 210 3 250 20 53 24 83 50 119 104 l26 40 2 434 c2 239 6
438 10 441 5 4 41 12 81 19 244 39 486 196 632 411 22 32 40 62 40 66 0 4 6
15 14 23 19 22 72 166 85 231 19 98 21 114 21 195 1 182 -29 310 -112 470
-124 240 -395 442 -657 490 -102 19 -186 22 -293 12 l-68 -7 -16 33 c-50 95
-180 237 -283 307 -103 69 -247 132 -336 146 -22 3 -44 8 -48 11 -18 11 -257
9 -325 -3z m313 -149 c364 -72 638 -388 656 -755 3 -52 21 -95 44 -104 30 -11
62 -6 85 12 20 16 23 27 22 88 -1 58 -14 145 -39 252 -5 22 -3 22 81 22 355 0
676 -228 786 -558 30 -91 35 -131 34 -267 0 -135 -20 -218 -79 -335 -153 -304
-497 -491 -820 -447 -87 12 -108 18 -180 44 -38 14 -83 25 -99 25 -66 -3 -94
-84 -44 -127 31 -27 167 -72 268 -89 l75 -12 3 -242 2 -242 -189 0 -189 0 -4
136 c-3 129 -4 137 -27 155 -32 26 -73 24 -100 -5 -22 -23 -23 -33 -23 -155
l0 -131 -181 2 -182 3 0 125 c-1 78 -6 133 -13 147 -23 43 -101 43 -124 0 -7
-13 -12 -70 -13 -147 l-1 -125 -182 -2 -182 -2 0 131 c0 121 -2 134 -22 155
-30 33 -80 31 -107 -3 -19 -24 -21 -40 -21 -156 l0 -128 -172 2 -173 3 -1 237
c-1 265 -8 242 76 252 111 14 269 72 294 107 26 38 -1 104 -48 112 -11 1 -48
-7 -81 -18 -57 -21 -122 -38 -190 -50 -16 -3 -68 -6 -115 -6 -340 -2 -660 231
-770 559 -30 90 -35 132 -34 262 1 126 17 203 64 306 108 240 329 414 592 468
84 17 258 22 258 7 0 -6 -7 -39 -15 -74 -28 -120 -35 -230 -16 -265 24 -45
105 -39 127 8 7 14 14 59 18 100 3 41 10 90 15 108 5 17 8 32 6 32 -6 0 42
125 63 162 98 179 254 317 434 385 117 43 317 61 433 38z"/>
<path d="M995 1880 c-54 -20 -68 -84 -27 -122 15 -14 155 -98 312 -188 157
-89 298 -176 314 -193 22 -24 27 -36 23 -61 -5 -27 -93 -196 -103 -196 -6 0
-194 108 -608 348 -44 26 -91 45 -108 45 -52 0 -90 -63 -64 -106 12 -20 96
-71 471 -287 127 -72 231 -133 232 -134 6 -5 -99 -174 -118 -188 -44 -36 -50
-34 -334 132 -396 231 -405 235 -448 191 -19 -19 -26 -69 -12 -91 9 -15 432
-262 601 -352 137 -72 218 -65 312 29 l53 52 47 -26 c26 -14 72 -40 102 -58
30 -18 74 -44 96 -56 23 -13 127 -73 232 -133 l190 -109 -13 -31 c-66 -159 38
-331 206 -341 63 -4 93 6 190 61 l76 44 79 -45 c93 -54 122 -63 189 -61 160 6
277 185 214 327 -11 23 -18 43 -17 44 2 1 62 34 133 74 180 99 205 132 146
191 -38 38 -52 35 -197 -46 -66 -37 -138 -78 -162 -91 l-43 -24 -87 49 c-47
27 -87 53 -89 58 -1 5 46 36 105 70 59 34 208 120 332 191 124 72 270 156 325
188 131 75 137 81 141 150 9 133 106 246 272 316 91 38 121 43 232 43 86 1
100 -2 148 -29 60 -33 89 -67 107 -129 28 -92 -25 -225 -132 -332 -145 -144
-330 -200 -461 -139 -64 30 -87 31 -127 7 -16 -10 -61 -36 -100 -56 -38 -21
-77 -45 -86 -52 -8 -8 -21 -14 -27 -14 -17 0 -52 -51 -52 -77 0 -30 42 -73 72
-73 13 0 55 18 93 41 39 22 88 51 110 64 37 21 43 22 80 9 178 -61 386 -8 563
146 305 263 296 639 -16 761 -74 29 -266 33 -352 7 -183 -55 -318 -144 -401
-264 -32 -47 -69 -143 -69 -179 0 -19 -27 -55 -42 -55 -3 0 -68 -37 -144 -81
-76 -45 -159 -93 -184 -107 -25 -14 -156 -90 -292 -169 -136 -78 -253 -143
-260 -143 -7 0 -62 29 -122 65 -60 36 -110 65 -112 65 -2 0 -58 32 -126 72
-68 39 -143 83 -169 97 -25 14 -115 66 -200 115 l-156 90 20 50 c33 88 10 196
-55 258 -28 26 -613 369 -660 387 -13 5 -32 5 -43 1z m880 -951 c116 -67 228
-131 250 -144 113 -64 696 -401 733 -424 108 -65 132 -114 83 -170 -50 -60
-67 -56 -286 72 -66 38 -141 82 -166 96 -26 14 -244 140 -487 280 l-440 254
26 46 c14 25 30 55 36 66 19 34 27 45 34 45 4 0 102 -54 217 -121z m581 -734
c-1 -5 -24 -19 -50 -30 -46 -19 -48 -19 -81 -1 -45 25 -65 78 -44 117 8 15 17
12 94 -29 46 -26 83 -51 81 -57z"/>
</g>
</svg>
